<?xml version="1.0" standalone="no"?>
<!DOCTYPE svg PUBLIC "-//W3C//DTD SVG 20010904//EN"
 "http://www.w3.org/TR/2001/REC-SVG-20010904/DTD/svg10.dtd">
<svg version="1.0" xmlns="http://www.w3.org/2000/svg"
 width="260.000000pt" height="260.000000pt" viewBox="0 0 260.000000 260.000000"
 preserveAspectRatio="xMidYMid meet">
<metadata>
Created by potrace 1.11, written by Peter Selinger 2001-2013
</metadata>
<g transform="translate(0.000000,260.000000) scale(0.100000,-0.100000)"
fill="#000000" stroke="none">
<path d="M1091 2584 c6 -7 -4 -10 -32 -8 -33 2 -39 -1 -34 -13 4 -13 3 -13 -9
-4 -9 8 -21 8 -39 2 -14 -5 -28 -7 -31 -4 -3 4 -6 1 -6 -5 0 -6 -7 -9 -15 -6
-8 4 -15 1 -15 -5 0 -6 -3 -10 -7 -10 -25 4 -43 -2 -37 -13 4 -7 3 -8 -4 -4
-14 9 -63 -4 -57 -15 3 -4 -4 -6 -15 -4 -11 2 -20 1 -20 -3 0 -8 -62 -34 -68
-30 -2 2 -8 -5 -13 -15 -6 -9 -14 -15 -20 -12 -5 4 -9 1 -9 -5 0 -6 -4 -8 -10
-5 -5 3 -10 1 -10 -5 0 -6 -4 -9 -9 -5 -5 3 -16 -3 -23 -13 -7 -11 -21 -18
-31 -16 -11 1 -16 0 -13 -3 7 -7 -19 -33 -34 -33 -6 0 -13 -7 -16 -15 -4 -8
-10 -12 -15 -9 -5 3 -9 0 -9 -5 0 -6 -18 -22 -40 -36 -23 -14 -38 -30 -35 -35
3 -6 1 -10 -5 -10 -13 0 -70 -57 -70 -71 0 -6 -4 -8 -9 -4 -5 3 -12 -4 -16
-15 -4 -11 -11 -18 -16 -14 -5 3 -9 2 -8 -3 4 -21 -2 -33 -18 -33 -9 0 -14 -3
-10 -6 6 -6 -2 -18 -34 -52 -14 -15 -32 -52 -29 -60 1 -2 -7 -11 -17 -20 -10
-9 -19 -24 -21 -32 -2 -8 -10 -22 -18 -31 -8 -9 -16 -26 -17 -38 -1 -11 -5
-21 -9 -21 -4 0 -8 -7 -8 -15 0 -8 -4 -15 -10 -15 -5 0 -6 -7 -3 -17 5 -12 3
-14 -7 -8 -9 5 -11 4 -6 -4 4 -6 2 -18 -4 -26 -6 -8 -9 -19 -5 -25 3 -5 1 -10
-6 -10 -7 0 -9 -3 -6 -7 4 -3 0 -17 -8 -29 -10 -15 -11 -25 -4 -29 7 -5 4 -14
-8 -28 -12 -14 -13 -18 -3 -12 13 8 13 6 2 -8 -8 -9 -10 -22 -6 -28 4 -8 3 -9
-4 -5 -7 4 -12 1 -12 -9 0 -10 5 -14 12 -10 7 4 6 1 -2 -7 -9 -7 -15 -27 -14
-45 1 -18 -1 -31 -5 -29 -4 3 -8 -4 -8 -15 -1 -13 2 -17 10 -12 9 5 9 3 1 -8
-18 -21 -19 -249 -2 -249 8 0 9 -3 3 -8 -12 -8 -13 -22 -3 -37 3 -5 5 -22 3
-37 -2 -16 1 -28 6 -28 6 0 5 -8 -1 -19 -8 -16 -6 -22 7 -30 14 -8 15 -10 3
-11 -13 0 -13 -1 0 -10 8 -5 11 -10 6 -10 -5 0 -2 -8 5 -17 8 -10 9 -14 2 -10
-7 5 -6 -4 3 -23 9 -16 13 -34 9 -40 -3 -5 -1 -10 5 -10 7 0 10 -6 7 -12 -2
-7 3 -19 12 -26 9 -8 10 -10 3 -7 -10 6 -11 3 -3 -11 14 -27 24 -58 23 -66 -1
-5 3 -8 9 -8 5 0 7 -4 4 -10 -3 -5 -1 -10 4 -10 6 0 11 -7 11 -15 0 -8 4 -15
10 -15 5 0 7 -7 4 -15 -4 -8 -1 -15 4 -15 9 0 26 -36 24 -50 0 -3 8 -9 18 -15
10 -5 19 -14 19 -20 2 -22 13 -45 21 -45 5 0 17 -15 26 -32 9 -18 23 -37 30
-41 8 -4 14 -15 14 -23 0 -8 4 -13 8 -10 4 2 18 -11 31 -30 13 -19 28 -34 33
-34 5 0 6 -5 3 -10 -4 -6 -2 -9 3 -8 5 2 21 -10 36 -25 14 -15 26 -25 26 -21
0 3 12 -7 28 -22 15 -16 39 -35 54 -43 15 -8 25 -18 22 -23 -5 -7 17 -13 39
-9 4 0 6 -2 5 -6 -2 -5 1 -9 5 -10 4 -1 14 -8 22 -15 28 -25 45 -38 50 -39 25
-3 45 -13 45 -22 0 -6 3 -7 7 -4 3 4 15 0 25 -10 13 -12 18 -13 18 -3 0 8 6 6
18 -6 9 -10 28 -21 42 -23 14 -1 28 -8 32 -15 4 -6 8 -7 8 -3 0 4 10 2 23 -5
22 -12 44 -17 85 -20 12 -1 22 -9 22 -18 0 -13 1 -13 10 0 6 10 10 11 10 3 0
-7 5 -13 11 -13 5 0 7 5 3 11 -3 6 4 5 17 -3 13 -8 47 -14 76 -14 28 1 49 -2
47 -6 -2 -4 72 -6 165 -5 105 0 167 5 164 11 -4 5 3 7 15 4 12 -4 24 -2 27 3
3 4 12 6 20 2 8 -3 15 0 15 6 0 6 5 11 11 11 5 0 7 -6 3 -12 -4 -7 3 -4 16 7
13 11 20 15 16 8 -5 -9 3 -8 27 2 19 8 37 11 41 8 3 -4 6 -1 6 5 0 6 9 9 19 7
11 -2 22 3 26 13 5 14 7 14 15 2 6 -8 10 -10 10 -4 0 11 32 24 54 23 5 -1 12
4 15 9 3 6 13 12 21 14 8 2 21 10 28 18 8 8 11 9 7 2 -3 -6 10 -3 29 9 20 12
36 26 36 31 0 6 6 8 14 5 8 -3 20 1 26 8 7 8 16 12 21 9 5 -3 9 2 9 10 0 9 6
15 13 14 6 -2 11 3 9 10 -1 8 1 11 6 8 5 -3 19 4 30 15 12 11 22 17 22 13 0
-4 16 10 35 30 19 21 35 35 35 32 0 -3 9 2 19 11 11 9 18 20 15 25 -3 4 0 8 6
8 15 0 41 26 33 34 -4 3 1 6 10 6 9 0 17 4 17 10 0 5 12 23 28 39 50 54 70 80
64 86 -3 3 1 5 8 5 7 0 11 3 7 6 -6 6 4 21 37 54 10 10 15 23 11 29 -3 6 -1
11 6 11 7 0 10 3 6 6 -3 4 1 13 9 21 8 8 11 20 7 26 -4 6 0 8 9 4 12 -4 14 -1
10 15 -3 14 -1 19 6 14 7 -4 10 1 7 14 -2 11 1 20 7 20 6 0 8 9 5 20 -3 11 0
18 6 17 6 -1 11 3 12 10 0 6 3 15 8 19 12 12 8 26 -5 19 -7 -4 -4 1 6 9 11 9
17 19 13 22 -4 4 -2 13 3 19 6 7 11 24 12 39 1 14 6 26 11 26 4 0 5 5 2 10 -3
6 0 10 7 10 9 0 9 3 -2 10 -8 5 -10 10 -3 10 6 0 10 8 8 18 -1 9 3 27 11 39
10 16 11 24 2 29 -7 5 -8 3 -3 -6 6 -9 4 -11 -5 -5 -10 6 -10 10 3 19 11 9 13
16 5 30 -8 14 -7 17 1 12 15 -10 14 7 -1 23 -11 11 -10 12 0 7 17 -10 16 235
-2 246 -8 6 -7 8 2 8 10 0 10 5 2 20 -8 15 -8 20 2 20 10 0 10 2 -1 9 -8 5
-12 18 -8 30 3 12 1 21 -3 21 -4 0 -6 10 -2 22 3 13 1 19 -6 15 -6 -4 -9 0 -7
10 1 10 -3 24 -9 32 -9 12 -8 13 2 7 10 -6 9 0 -3 23 -9 17 -13 36 -10 41 3 6
1 10 -4 10 -6 0 -11 10 -11 22 0 12 -8 30 -17 41 -13 15 -14 18 -3 12 10 -6 9
-1 -3 13 -11 11 -16 25 -13 31 4 5 1 13 -4 16 -10 6 -22 31 -30 60 -2 6 -10
16 -19 23 -9 8 -11 11 -4 8 6 -4 -4 18 -24 49 -20 30 -40 55 -45 55 -5 0 -7 4
-4 8 3 5 -8 23 -24 41 -17 18 -30 34 -30 37 0 19 -140 155 -152 148 -6 -4 -8
-3 -5 3 7 11 -28 45 -37 36 -3 -4 -6 0 -6 9 0 8 -12 21 -27 29 -16 8 -34 20
-41 27 -7 6 -18 12 -23 12 -6 0 -7 5 -3 12 5 7 3 8 -5 3 -7 -4 -22 1 -34 13
-12 11 -41 28 -65 39 -23 11 -39 23 -35 27 4 4 0 4 -10 0 -10 -3 -17 -1 -17 6
0 6 -4 9 -8 6 -5 -3 -27 6 -49 19 -31 17 -44 20 -54 11 -9 -8 -10 -8 -5 2 6
11 -11 17 -36 13 -5 0 -8 3 -8 9 0 5 -7 6 -17 3 -10 -4 -14 -2 -10 4 4 7 0 10
-10 9 -10 -2 -21 2 -25 8 -5 7 -8 7 -8 -2 0 -10 -4 -10 -16 2 -18 18 -39 22
-28 5 5 -8 1 -8 -13 0 -11 6 -23 7 -27 4 -3 -3 -6 -1 -6 5 0 6 -11 9 -26 6
-15 -3 -23 -1 -20 5 3 5 -2 8 -11 6 -10 -1 -17 -8 -15 -15 2 -9 -4 -9 -20 2
-32 21 -264 26 -252 6 5 -10 4 -10 -6 -1 -9 9 -19 9 -33 2 -11 -6 -17 -7 -14
-2 3 5 -7 9 -23 8 -19 0 -25 -3 -19 -11z"/>
</g>
</svg>
